<svg version="1.1" id="Layer_1" xmlns="http://www.w3.org/2000/svg" xmlns:xlink="http://www.w3.org/1999/xlink" x="0px" y="0px"
	 width="100%" viewBox="0 0 128 128" enable-background="new 0 0 128 128" xml:space="preserve">
<path fill="#000000" opacity="1.000000" stroke="none" 
	d="
M76.977478,113.370819 
	C65.697182,113.392815 54.850883,113.571915 44.645538,109.358025 
	C33.931118,104.933929 25.160648,90.838379 25.670549,79.358643 
	C25.740931,77.774117 25.290169,75.897568 27.468880,75.214577 
	C29.305752,75.512207 29.229824,76.945007 29.322262,78.268646 
	C30.214575,91.045769 37.193756,99.831093 47.831036,106.056557 
	C53.492565,109.369972 60.105629,108.744049 66.274925,109.412842 
	C74.675232,110.323494 83.202713,109.856499 91.598518,108.349686 
	C94.202156,107.882401 96.836647,107.575920 99.427208,107.049225 
	C104.310417,106.056396 108.421898,104.251450 110.604065,99.063576 
	C111.710655,96.432777 113.725632,93.840569 116.358704,92.283524 
	C120.342934,89.927513 121.347885,86.265419 121.141106,82.120705 
	C121.053925,80.373161 121.007629,79.036301 123.103661,78.993759 
	C124.867477,78.957962 125.278297,80.337982 125.273773,81.749481 
	C125.258141,86.626701 124.954010,91.313995 120.457924,94.657440 
	C117.243759,97.047607 114.825287,100.194107 113.178200,103.973305 
	C110.939018,109.111038 105.755463,110.192833 101.176277,110.930466 
	C93.353264,112.190628 85.510338,113.948311 76.977478,113.370819 
z"/>
<path fill="#000000" opacity="1.000000" stroke="none" 
	d="
M97.773880,63.748989 
	C96.505844,53.149353 95.269104,43.001514 94.111214,32.844685 
	C93.802872,30.139975 92.347435,27.090185 96.056343,24.725908 
	C99.039406,30.451811 98.278648,36.524326 99.253319,42.209282 
	C101.090439,52.924599 101.430016,63.858814 103.638359,74.534027 
	C103.942917,76.006279 104.729790,77.643341 102.472031,78.063713 
	C100.564766,78.418823 100.179970,76.924507 99.561890,75.431519 
	C98.055374,71.792503 99.382492,67.781769 97.773880,63.748989 
z"/>
<path fill="#000000" opacity="1.000000" stroke="none" 
	d="
M42.023041,41.605267 
	C42.542896,35.510578 38.836517,29.722469 41.813656,24.148623 
	C43.668079,24.177666 44.117161,25.013863 44.244915,26.078564 
	C45.679161,38.031551 47.604385,49.942814 47.344166,62.041893 
	C47.333469,62.539303 47.403660,63.052528 47.305397,63.531559 
	C46.867500,65.666389 47.162735,69.161957 44.243446,68.691635 
	C41.460567,68.243294 43.141602,65.262337 43.405334,63.251705 
	C44.341801,56.112495 42.642815,49.110889 42.023041,41.605267 
z"/>
</svg>