<svg width="420" height="420" viewBox="0 0 420 420" fill="none" xmlns="http://www.w3.org/2000/svg">
<path d="M93.6872 297.802C94.6379 291.685 98.3675 286.353 103.788 283.362L157 254V353C157 364.046 148.046 373 137 373H82L93.6872 297.802Z" fill="#FFFBFC"/>
<path d="M327.313 297.802C326.362 291.685 322.632 286.353 317.212 283.362L264 254V353C264 364.046 272.954 373 284 373H339L327.313 297.802Z" fill="#FFFBFC"/>
<path d="M210 254V132" stroke="#FFFBFC" stroke-width="25"/>
<path d="M153.826 92.4102C155.736 87.3494 160.58 84 165.989 84H253.011C258.42 84 263.264 87.3494 265.174 92.4103L275.362 119.41C278.571 127.913 272.288 137 263.2 137H155.8C146.712 137 140.429 127.913 143.638 119.41L153.826 92.4102Z" fill="#FFFBFC"/>
<line x1="159.5" y1="266.5" x2="260.5" y2="266.5" stroke="#FFFBFC" stroke-width="25" stroke-linecap="round"/>
</svg>
